<?xml version="1.0" encoding="utf-8"?>
<!-- Generator: Adobe Illustrator 19.2.1, SVG Export Plug-In . SVG Version: 6.00 Build 0)  -->
<svg version="1.1" id="layer" xmlns="http://www.w3.org/2000/svg" xmlns:xlink="http://www.w3.org/1999/xlink" x="0px"
  y="0px" viewBox="0 0 652 652" style="enable-background:new 0 0 652 652;" xml:space="preserve">
  <style type="text/css">
    .st0 {
      fill: #05AADA;
    }

    .st1 {
      fill: #53646D;
    }
  </style>
  <polygon class="st0" points="146.4,345.4 140.3,345.4 116.1,311 116.1,345.4 108.4,345.4 108.4,298.1 115.9,298.1 138.7,330.9
	138.7,298.1 146.4,298.1 " />
  <polygon class="st0" points="194.3,298.1 194.3,305.2 171.3,305.2 171.3,317.7 192.2,317.7 192.2,324.7 171.3,324.7 171.3,338.2
	194.3,338.2 194.3,345.4 163.4,345.4 163.4,298.1 " />
  <rect x="239.7" y="298.1" class="st1" width="3.9" height="47.3" />
  <g>
    <path class="st1" d="M281,341.8c11.6,0,19-7.9,19-20s-7.3-20-19-20h-10.5v40H281z M266.6,298.1H281c13.7,0,23,9.2,23,23.6
		c0,14.4-9.2,23.6-23,23.6h-14.4V298.1z" />
    <polygon class="st1" points="351.1,298.1 351.1,301.7 325.6,301.7 325.6,319.2 348.7,319.2 348.7,322.8 325.6,322.8 325.6,341.8
		351.1,341.8 351.1,345.4 321.7,345.4 321.7,298.1 	" />
    <polygon class="st1" points="409.5,345.4 406.9,345.4 378,304.3 378,345.4 374.2,345.4 374.2,298.1 378,298.1 405.7,337.5
		405.7,298.1 409.5,298.1 	" />
    <polygon class="st1" points="428.3,298.1 466.8,298.1 466.8,301.7 449.5,301.7 449.5,345.4 445.5,345.4 445.5,301.7 428.3,301.7
		" />
    <rect x="489" y="298.1" class="st1" width="3.9" height="47.3" />
    <polygon class="st1" points="515.2,298.1 553.7,298.1 553.7,301.7 536.4,301.7 536.4,345.4 532.5,345.4 532.5,301.7 515.2,301.7
		" />
    <polygon class="st1" points="598.8,298.1 603.1,298.1 585.8,325.2 585.8,345.4 581.9,345.4 581.9,325.2 564.7,298.1 569,298.1
		584,321.6 	" />
    <path class="st0" d="M61.8,297.2c-4.5,0-9,1.2-13.1,3.7c-11.9,7.2-15.7,22.8-8.5,34.6c4.7,7.8,13.1,12.1,21.6,12.1
		c4.5,0,9-1.2,13.1-3.7c11.9-7.2,15.7-22.8,8.5-34.6C78.7,301.5,70.4,297.2,61.8,297.2 M61.8,304.9L61.8,304.9
		c6.2,0,11.8,3.1,15,8.4c2.4,4,3.1,8.7,2,13.2c-1.1,4.5-3.9,8.4-7.9,10.8c-2.7,1.7-5.9,2.5-9.1,2.5c-6.2,0-11.8-3.1-15-8.4
		c-2.4-4-3.1-8.7-2-13.2c1.1-4.5,3.9-8.4,7.9-10.8C55.5,305.8,58.7,304.9,61.8,304.9" />
    <path class="st0" d="M82.9,301.4l2.7-2.7c-6.3-6.3-14.9-9.8-23.6-9.8v3.8C69.9,292.8,77.4,295.9,82.9,301.4" />
    <path class="st0" d="M90.5,305c-1.4-2.3-3.1-4.4-4.9-6.3l-2.7,2.7c1.7,1.7,3.1,3.5,4.4,5.6c2.9,4.8,4.3,10.1,4.3,15.4h3.8
		C95.3,316.5,93.8,310.5,90.5,305" />
    <path class="st0" d="M95.3,322.4h-3.8c0,7.7-3,15.3-8.7,20.9l2.7,2.7C91.9,339.7,95.3,331.1,95.3,322.4" />
    <path class="st0" d="M61.9,355.8c5.9,0,11.9-1.6,17.3-4.9c2.3-1.4,4.4-3.1,6.3-4.9l-2.7-2.7c-1.6,1.6-3.5,3.1-5.6,4.4
		c-4.6,2.8-9.9,4.3-15.3,4.3c0,0,0,0-0.1,0L61.9,355.8C61.9,355.8,61.9,355.8,61.9,355.8" />
    <path class="st0" d="M38.2,346c6.3,6.3,14.9,9.8,23.6,9.8V352c-8,0-15.5-3.2-21-8.7L38.2,346z" />
    <path class="st0" d="M38.2,346l2.7-2.7c-1.6-1.7-3.1-3.5-4.4-5.6c-2.9-4.7-4.3-10-4.3-15.4h-3.8c0,5.9,1.5,11.9,4.8,17.4
		C34.7,342.1,36.4,344.2,38.2,346" />
    <path class="st0" d="M40.9,301.5c1.7-1.7,3.5-3.1,5.6-4.4c4.6-2.8,9.9-4.3,15.3-4.3c0,0,0,0,0.1,0V289c0,0,0,0-0.1,0
		c-5.9,0-11.9,1.6-17.3,4.9c-2.3,1.4-4.4,3.1-6.3,5L40.9,301.5z" />
  </g>
  <g>
    <path class="st0" d="M97.5,300.8c-1.8-2.9-3.9-5.5-6.2-7.8l-2.7,2.7c2.1,2.1,4,4.5,5.6,7.1c3.7,6.1,5.5,12.9,5.5,19.7h3.8
		C103.6,315,101.6,307.5,97.5,300.8" />
    <path class="st0" d="M32.4,351.8C40.3,359.7,51,364,61.9,364v-3.8c-10.3,0-19.8-4-26.8-11.1L32.4,351.8z" />
    <path class="st0" d="M32.4,351.8l2.7-2.7c-2.1-2.1-4-4.5-5.6-7.1c-3.7-6-5.5-12.8-5.5-19.7h-3.8c0,7.4,1.9,14.9,6,21.6
		C28,346.9,30.1,349.5,32.4,351.8" />
  </g>
  <g>
    <path class="st0" d="M103.6,322.4h-3.8c0,9.9-3.9,19.6-11.1,26.8l2.7,2.7C99.2,343.9,103.5,333.3,103.6,322.4" />
    <path class="st0" d="M25.1,313.4c1.7-6.9,5.2-12.9,10-17.8l-2.7-2.7c-7.9,7.9-12.1,18.6-12.2,29.5H24
		C24,319.4,24.4,316.4,25.1,313.4" />
    <path class="st0" d="M35.1,295.7c2.1-2.1,4.5-4,7.1-5.6c5.9-3.6,12.7-5.5,19.6-5.5c0,0,0,0,0.1,0v-3.8c0,0,0,0-0.1,0
		c-7.4,0-14.8,1.9-21.6,6c-2.9,1.8-5.5,3.8-7.8,6.1L35.1,295.7z" />
    <path class="st1" d="M606.2,298.1v0.9h2.2v6h1v-6h2.2v-0.9H606.2z M619.2,298.1l-2.5,3.8l-2.5-3.8h-1.1v7h1v-5.3l2.5,3.8h0.1
		l2.5-3.8v5.3h1v-7H619.2z" />
  </g>
</svg>
